PathFileType        4      (X/Y/Z)      C:\Users\pc\Desktop\IMUTRC\Sujet_04\Sujet_04_velo_80.trc         
DataRate	CameraRate	NumFrames	NumMarkers	Units	OrigDataRate	OrigDataStartFrame	OrigNumFrames
60.0	60.0	4	64	mm	60.0	1	934
Frame#	Time	pHipOrigin			pRightASI			pLeftASI			pRightCSI			pLeftCSI			pRightIschialTub			pLeftIschialTub			pSacrum			pL5SpinalProcess			pL3SpinalProcess			pT12SpinalProcess			pIJ			pT4SpinalProcess			pT8SpinalProcess			pPX			pC7SpinalProcess			pTopOfHead			pRightAuricularis			pLeftAuricularis			pBackOfHead			pRightAcromion			pLeftAcromion			pRightArmLatEpicondyle			pRightArmMedEpicondyle			pLeftArmLatEpicondyle			pLeftArmMedEpicondyle			pRightUlnarStyloid			pRightRadialStyloid			pRightOlecranon			pLeftUlnarStyloid			pLeftRadialStyloid			pLeftOlecranon			pRightTopOfHand			pRightPinky			pRightBallHand			pLeftTopOfHand			pLeftPinky			pLeftBallHand			pRightGreaterTrochanter			pRightKneeLatEpicondyle			pRightKneeMedEpicondyle			pRightPatella			pLeftGreaterTrochanter			pLeftKneeLatEpicondyle			pLeftKneeMedEpicondyle			pLeftPatella			pRightTibialTub			pRightLatMalleolus			pRightMedMalleolus			pLeftTibialTub			pLeftLatMalleolus			pLeftMedMalleolus			pRightHeelFoot			pRightFirstMetatarsal			pRightFifthMetatarsal			pRightPivotFoot			pRightHeelCenter			pRightToe			pLeftHeelFoot			pLeftFirstMetatarsal			pLeftFifthMetatarsal			pLeftPivotFoot			pLeftHeelCenter			pLeftToe			
		X1	Y1	Z1	X2	Y2	Z2	X3	Y3	Z3	X4	Y4	Z4	X5	Y5	Z5	X6	Y6	Z6	X7	Y7	Z7	X8	Y8	Z8	X9	Y9	Z9	X10	Y10	Z10	X11	Y11	Z11	X12	Y12	Z12	X13	Y13	Z13	X14	Y14	Z14	X15	Y15	Z15	X16	Y16	Z16	X17	Y17	Z17	X18	Y18	Z18	X19	Y19	Z19	X20	Y20	Z20	X21	Y21	Z21	X22	Y22	Z22	X23	Y23	Z23	X24	Y24	Z24	X25	Y25	Z25	X26	Y26	Z26	X27	Y27	Z27	X28	Y28	Z28	X29	Y29	Z29	X30	Y30	Z30	X31	Y31	Z31	X32	Y32	Z32	X33	Y33	Z33	X34	Y34	Z34	X35	Y35	Z35	X36	Y36	Z36	X37	Y37	Z37	X38	Y38	Z38	X39	Y39	Z39	X40	Y40	Z40	X41	Y41	Z41	X42	Y42	Z42	X43	Y43	Z43	X44	Y44	Z44	X45	Y45	Z45	X46	Y46	Z46	X47	Y47	Z47	X48	Y48	Z48	X49	Y49	Z49	X50	Y50	Z50	X51	Y51	Z51	X52	Y52	Z52	X53	Y53	Z53	X54	Y54	Z54	X55	Y55	Z55	X56	Y56	Z56	X57	Y57	Z57	X58	Y58	Z58	X59	Y59	Z59	X60	Y60	Z60	X61	Y61	Z61	X62	Y62	Z62	X63	Y63	Z63	X64	Y64	Z64	
1	0.0	4.919907857114186E-14	1249.99598	5.863317863948313E-14	80.76842015357667	1322.24675	162.8880953215717	107.19926424100922	1351.49385	-128.43206383830312	52.618916227920664	1405.88423	141.83995927333274	74.21893124354287	1429.87148	-96.60834964901922	-77.51999001482669	1198.61124	48.52271877753415	-66.67570130798111	1210.57597	-70.73859202141975	-64.97708855453833	1288.83799	-1.9923028974972752	0.6429449218956726	1384.0934	12.815748562214786	74.2112189055943	1479.4644	31.97060980957316	145.2322224669843	1563.73769	50.697472215657925	409.6573574639015	1564.0845	94.26328596715547	305.6817786126561	1681.76654	88.77700349074713	226.5151114755201	1635.75725	70.77344326920475	304.24023380478536	1496.68899	69.61420818487116	356.28940904445267	1708.81722	100.26130088611302	604.7931421134906	1751.35847	138.70067563371845	509.48250545000883	1708.70162	191.73895126325837	526.5403188846697	1723.03617	56.32313817833389	497.324597036691	1765.63522	126.71368078495138	324.55614501608	1646.45036	281.49254690506876	384.17493459579566	1694.59827	-89.51204923715378	347.1507896480903	1328.37361	281.623090747755	323.9589571457703	1324.09637	218.9146567227044	423.32510761369406	1373.74709	-84.93809285840308	381.4435567852776	1367.56242	-32.969199533006275	463.39763789144297	1106.53487	204.5282508250459	509.7550600514428	1131.56253	215.3535149373734	313.10957979367856	1314.84827	247.25897215998248	468.453895446719	1131.90934	13.085820786899859	518.543905497488	1148.96052	22.514493281257558	378.77173489116944	1363.34298	-65.73761945518999	679.8002327799493	1049.48567	296.16145035045537	586.705455450209	1033.2437	249.7792450814628	526.1043738490355	1081.276	211.36828096904142	685.6940617926505	1029.02425	0.41877863214023137	581.7390813746854	1034.51531	16.268516185799342	523.3601473145172	1096.41976	30.772081325371886	7.846904826626002	1236.52844	179.48359006854747	404.92071864806286	1069.25348	240.31643438090134	421.67071382887644	1062.2018	158.12715681341496	429.12515331097836	1110.06071	195.78597533612333	16.199780628403474	1233.40721	-176.72334742927117	236.85960483383872	858.45465	-184.86539585856184	248.73169776098695	856.08483	-101.56693146976498	281.7978985908422	883.82912	-145.15797177139322	449.2560150366462	1018.27334	198.28568867211615	222.16450033275754	666.49883	193.18759270853084	229.77096145172612	668.81085	127.34778483069735	279.7427323588065	805.5671	-148.86613078973377	36.641575389510265	465.75731	-176.37087752986696	44.68670852970988	461.13326	-110.76178846113379	167.01878407521198	587.7166	152.91536419819533	341.84019536434454	556.44647	123.32635368037033	335.6508348599293	553.38304	207.6703951057661	362.3588094494422	550.43521	165.94369708832846	209.1900356244829	582.05214	155.7843257041442	451.20141230417585	533.03722	171.8291593655803	-38.5775668200862	403.85286	-136.7959639646107	117.34706328804833	327.78726	-88.7323952614358	116.71349659553576	319.05937	-172.93487432063654	138.36249764050473	312.5279	-128.70062568065245	0.3104619867302745	386.39708	-135.32198040140148	218.70160729793736	270.56465	-125.03610495451218	
2	0.017	4.919907857114186E-14	1249.99598	5.863317863948313E-14	81.14401183899204	1323.05595	162.3465788528962	105.70193407922837	1352.12966	-129.13744683435652	52.25450923449424	1406.52003	141.3157550925578	72.30732437352879	1430.27609	-97.26792337728241	-76.867000086311	1198.09104	49.03114380195471	-66.79987727046765	1209.94016	-70.25713331047919	-65.24988467282881	1288.37559	-1.6879472339297195	-0.2828334644660897	1384.1512	12.611672773485669	72.96531855506282	1479.98461	31.20517028835314	143.7404923116423	1564.5469	49.45922246700322	408.38954393322797	1565.70291	91.40353652210945	304.0755188599626	1683.09595	86.50305431106503	224.90325937683207	1636.85546	69.03235441424783	302.9897249015679	1498.0184	67.49446384654306	354.71163984377256	1710.26224	97.6616220753778	603.3609292706589	1753.03469	135.37524020621015	508.1174810377604	1710.43564	188.58350872647117	524.9310029944648	1724.65459	53.14632290662951	495.87813570391427	1767.25364	123.55110634274743	323.3198986911279	1648.12658	279.2099428140047	381.6571526071296	1695.63868	-92.15294161874542	345.1903032844542	1329.64522	279.64637298666804	321.8727770089902	1325.36798	216.9679690730532	421.62317530627973	1374.9609	-87.05629763730886	379.97166103799884	1368.77624	-34.90317825213501	461.482967223473	1107.80648	202.96581743263653	507.803229831757	1132.83415	213.7467965157074	311.0605463528623	1316.11988	245.3565542186992	467.6176696796109	1133.29655	10.920274841226018	517.6776520840808	1150.46333	20.22322538579877	377.1812555273986	1364.49899	-67.72299978810335	678.0698034926454	1051.21969	294.3689675421583	585.005040953452	1034.68871	248.11246890206166	524.196827426038	1082.60542	209.72441708397994	684.9021210547992	1030.52707	-1.7839268652496685	580.9842873327979	1036.01813	14.110080396777334	522.5682001487897	1097.92258	28.56936816753762	8.912639564396983	1236.70184	179.49477599310475	400.3045662885542	1056.07494	238.68174533625012	416.1588183897496	1047.75165	156.41410750194348	425.62460540404743	1095.61056	193.5924587674642	16.444072106359954	1233.40721	-176.70197469435396	246.46291566691875	864.11911	-183.49185833867122	258.2092943047264	862.21169	-100.16337273145128	290.6611966567599	890.64959	-143.76712319617036	446.51277686388937	1005.73061	196.81487258271883	234.39543885079306	644.708	190.3190440832264	242.16476861551035	647.42463	124.49347826746164	286.0643523484101	810.30675	-148.43614138050975	24.513364750667833	484.83151	-180.3038692782526	32.43990784649932	478.76245	-114.74618948374854	182.26421855744073	564.88536	150.76183850620313	357.9299765077146	538.75948	121.36979362045537	351.8149299114235	536.15845	205.8023833555996	378.6486059345247	533.73083	164.04564879885007	224.55405372320374	560.49251	153.68220162593676	467.85409031158304	519.16508	170.00389308524814	-52.23007393418949	425.93269	-140.6571728180475	100.9045185122134	344.43383	-92.59153943111424	100.02666034174432	335.87934	-176.81539122523216	121.38708611206846	328.53867	-132.5653698567698	-14.044897110251064	407.14749	-139.12160725856984	200.12048288990857	283.91659	-128.83618924808474	
3	0.033	4.919907857114186E-14	1249.99598	5.863317863948313E-14	81.56388855366417	1323.92296	161.7679028325047	104.21173459029596	1352.70767	-129.92425266261762	51.84581844437944	1407.09804	140.8286963751783	70.39572393139082	1430.68069	-97.92748944510117	-76.16974687730354	1197.57083	49.50241446996707	-66.87978352458633	1209.36216	-69.81282129550242	-65.56695049948715	1287.85538	-1.3464448743983937	-1.171451066543538	1384.2668	12.451867925692735	71.71227987123842	1480.50481	30.52116002721694	142.28590761969582	1565.41391	48.26525651503688	407.114606157582	1567.32133	88.62521756971557	302.506412231109	1684.48317	84.27338250019518	223.33569107483245	1638.01148	67.2541200958955	301.7392159983506	1499.29001	65.37471950821494	353.17816210022534	1711.76505	95.02479137337107	601.8915697318632	1754.65311	132.00553507033402	506.78960332147574	1712.11186	185.47233589805185	523.3216806763838	1726.21521	49.969499974480755	494.39452124729775	1768.87206	120.34425453173111	322.1650764309519	1649.8028	276.93445530746857	379.1836479872758	1696.7369	-94.83098712417694	343.2298245812624	1330.91684	277.669648797705	319.7423130755218	1326.63959	215.05842688679758	420.0026670636414	1376.17471	-89.16738583168663	378.54404908740844	1369.99005	-36.87430243465914	459.53114466423165	1109.0203	201.3590925830944	505.8071299037033	1134.10576	212.17722479000508	309.01863715701836	1317.39149	243.3727057847637	466.8257289417595	1134.62597	8.717569343836203	516.8113974381051	1151.90835	17.93197157866041	375.63505353244005	1365.655	-69.74553324485655	676.332243532493	1052.8959	292.6579075660689	583.2603631762032	1036.19153	246.4828470790689	522.3264353594487	1083.93483	208.12481647941016	684.1101726565034	1032.02988	-3.986625934763424	580.1923465949465	1037.46314	11.907374899387548	521.694828918286	1099.36759	26.3595384251754	9.985490886695942	1236.87525	179.42453785288603	395.2670117432716	1043.0698	237.17431014036174	410.13695317147216	1033.5327	154.90260296602574	421.5698167770297	1081.3338	191.63764775864325	16.688370012192536	1233.40721	-176.68059429899236	255.94762879518623	870.01478	-182.16972366513363	267.52402863059336	868.56976	-98.77404839476193	299.3616337373733	897.75907	-142.39052311089227	443.6438384901126	993.30348	195.37407894431288	246.95210699988158	623.66858	187.47898600993543	254.87717350493085	626.78981	121.74909917676763	292.2231036922649	815.2198	-148.02039403335434	13.133808934617534	505.11953	-183.88417397511796	20.867462166277228	497.72105	-118.46645053202312	197.5096594675456	542.11192	148.6083204746554	373.894043361744	521.1303	119.4432547789635	367.90470462691746	518.99167	203.84581563524026	394.7755402017346	517.08425	162.1333661077474	239.91807824980063	539.04849	151.58008520817364	484.38104636920525	505.29293	168.2086544512152	-65.88257338784837	448.07033	-144.5183880993604	84.33626710748236	361.25381	-96.4206688102457	83.21410979861238	352.87272	-180.6658869114047	104.33024409098002	344.72284	-136.43723827785954	-28.311701469607854	427.95571	-142.99554036341794	181.46504580632393	297.32634	-132.72483593972626	
4	0.05	4.919907857114186E-14	1249.99598	5.863317863948313E-14	81.92523940957922	1324.32757	161.38924092125737	102.81161531008995	1353.51688	-130.33394256692986	51.57149808755548	1407.32924	140.6816157787967	68.69278731447126	1431.20089	-98.15853797518639	-75.54679348809974	1197.05063	49.88513806079929	-66.98971099712807	1208.95755	-69.4942235698662	-65.80257940561724	1287.45078	-0.9978106094502301	-1.9185816508021913	1384.2668	12.550617134121595	70.58649503617688	1480.85162	30.258551951854653	140.98860565537967	1566.04972	47.6184006103089	405.99692936080146	1568.65074	86.39401385986784	301.13173379328117	1685.52358	82.63510453325206	221.96254453598254	1638.93629	66.06727196102545	300.6459898227635	1500.38822	63.80208521712521	351.7948275184473	1712.97887	93.01651406700705	600.6980624488693	1756.04032	129.23434036291255	505.61900710025316	1713.55687	182.90828720519139	521.9510639181409	1727.48682	47.3469177624188	493.1424881055469	1770.25927	117.77307393345387	321.1161199637327	1651.19001	275.3246743204151	376.77885603653897	1697.6039	-96.88760347893819	341.57370154163823	1331.84165	275.9657207270324	318.04189857876474	1327.6222	213.39165070739654	418.43662300017525	1377.15732	-90.49418389008977	377.2080556723984	1371.03046	-38.01687320071687	458.1065888511526	1110.06071	200.2908344925925	504.3754562735279	1135.14617	211.19040485259978	307.36250645694975	1318.3741	241.6687841419672	466.0740051257038	1135.89758	7.462000879404798	516.0667978670218	1153.29556	16.594972621576915	374.1804688404936	1366.63761	-70.93949919682291	675.0563078752178	1054.45652	291.76675252294	581.9844275189282	1037.46314	245.59169203594004	520.969067976953	1085.03304	207.22655127962943	683.3956019642876	1033.3593	-5.197917030382541	579.5149277940021	1038.79256	10.740375260901203	521.0245343623142	1100.69701	25.111108294036967	10.85120508744663	1236.12384	179.37719025824182	388.89498159363643	1027.86824	234.97573277792029	402.9134649714755	1017.75313	152.5885057850481	416.32917146889497	1065.14963	189.16881171896281	17.22123799736218	1233.86961	-176.67500838087398	266.8965870688557	877.52886	-181.1707799490293	278.1472585057781	876.37284	-97.80360931899162	309.3120469364236	906.48696	-141.23278651694466	439.0704316004383	979.14233	193.2508069437487	256.7075592231256	602.28235	185.70672093029773	264.8769236340074	605.46139	119.99821449249156	299.8547434697198	822.09807	-147.55785362510025	5.1774386403070025	527.08376	-186.26238293297106	12.629647270170324	518.58707	-120.91030959360567	209.39097349944825	518.99167	147.39130042460974	386.2868590717753	502.1717	118.47611978543713	380.1718124754843	500.49548	202.9087095205814	407.1612252389174	498.93486	161.24765394642878	251.83655306598757	517.02645	150.40733609906414	497.1596418075801	489.33996	167.52143216050732	-76.01622885336718	471.59517	-147.33325327500575	71.24259517783129	379.86561	-99.16627963898085	69.99473000749691	371.65792	-183.38146886127237	90.74086496044363	362.75663	-139.14416408377693	-39.10391869344022	450.26675	-145.78596134574585	166.35136377265053	312.8169	-135.3599865111392	
